<svg width="25" height="24" viewBox="0 0 25 24" fill="none" xmlns="http://www.w3.org/2000/svg">
<path d="M8.5 4L9.8 2.375C9.89373 2.25793 10.0126 2.16344 10.1478 2.09853C10.283 2.03362 10.431 1.99994 10.581 2H14.42C14.57 1.99994 14.718 2.03362 14.8532 2.09853C14.9884 2.16344 15.1073 2.25793 15.201 2.375L16.5 4V5C16.5 5.26522 16.3946 5.51957 16.2071 5.70711C16.0196 5.89464 15.7652 6 15.5 6H9.5C9.23478 6 8.98043 5.89464 8.79289 5.70711C8.60536 5.51957 8.5 5.26522 8.5 5V4Z" stroke="#1368BC" stroke-width="1.5" stroke-linecap="round" stroke-linejoin="round"/>
<path d="M8.5 4H6.5C5.96957 4 5.46086 4.21071 5.08579 4.58579C4.71071 4.96086 4.5 5.46957 4.5 6V19C4.5 19.5304 4.71071 20.0391 5.08579 20.4142C5.46086 20.7893 5.96957 21 6.5 21H18.5C19.0304 21 19.5391 20.7893 19.9142 20.4142C20.2893 20.0391 20.5 19.5304 20.5 19V6C20.5 5.46957 20.2893 4.96086 19.9142 4.58579C19.5391 4.21071 19.0304 4 18.5 4H16.5" stroke="#1368BC" stroke-width="1.5" stroke-linecap="round" stroke-linejoin="round"/>
<path d="M8.5 11H16.5" stroke="#F29C38" stroke-width="1.5" stroke-linecap="round" stroke-linejoin="round"/>
<path d="M8.5 16H16.5" stroke="#F29C38" stroke-width="1.5" stroke-linecap="round" stroke-linejoin="round"/>
</svg>
