<svg width="25" height="24" viewBox="0 0 25 24" fill="none" xmlns="http://www.w3.org/2000/svg">
<path d="M5.83301 5.469C7.47301 3.957 9.84801 3 12.5 3C15.152 3 17.527 3.957 19.167 5.469" stroke="#F29C38" stroke-width="1.5" stroke-linecap="round" stroke-linejoin="round"/>
<path d="M8.05566 8.1851C9.14866 7.2781 10.7317 6.7041 12.4997 6.7041C14.2677 6.7041 15.8507 7.2781 16.9437 8.1851" stroke="#F29C38" stroke-width="1.5" stroke-linecap="round" stroke-linejoin="round"/>
<path d="M10.2778 11C10.8248 10.546 11.6158 10.259 12.4998 10.259C13.3838 10.259 14.1758 10.546 14.7218 11" stroke="#F29C38" stroke-width="1.5" stroke-linecap="round" stroke-linejoin="round"/>
<path d="M4.9059 11L3.5529 17.764C3.47449 18.1566 3.48416 18.5617 3.58122 18.9501C3.67828 19.3384 3.86031 19.7005 4.11418 20.01C4.36805 20.3195 4.68744 20.5689 5.04932 20.7401C5.41121 20.9113 5.80657 21.0001 6.2069 21H18.7939C19.1941 20.9999 19.5894 20.911 19.9512 20.7398C20.3129 20.5685 20.6322 20.3191 20.8859 20.0096C21.1397 19.7001 21.3216 19.3381 21.4186 18.9498C21.5156 18.5615 21.5253 18.1565 21.4469 17.764L20.0939 11" stroke="#1368BC" stroke-width="1.5" stroke-linecap="round" stroke-linejoin="round"/>
</svg>
