<svg width="24" height="24" viewBox="0 0 24 24" fill="none" xmlns="http://www.w3.org/2000/svg">
<path d="M15.134 2.11563L15.1342 2.11582L20.3842 7.36582L20.3844 7.36602C20.5004 7.48219 20.5924 7.62008 20.6552 7.77183L20.1931 7.96286L20.6552 7.77184C20.7179 7.92358 20.7501 8.08619 20.75 8.2504M15.134 2.11563L20.25 10.5C20.25 10.6989 20.171 10.8897 20.0303 11.0303C19.8897 11.171 19.6989 11.25 19.5 11.25C19.3011 11.25 19.1103 11.171 18.9697 11.0303C18.829 10.8897 18.75 10.6989 18.75 10.5V9.5H18.25M15.134 2.11563C15.0178 1.99958 14.8799 1.90757 14.7282 1.84483C14.5765 1.78214 14.4141 1.74992 14.25 1.75C14.2499 1.75 14.2499 1.75 14.2498 1.75H5.25C4.71957 1.75 4.21086 1.96071 3.83579 2.33579C3.46071 2.71086 3.25 3.21957 3.25 3.75V10.5C3.25 10.8315 3.3817 11.1495 3.61612 11.3839C3.85054 11.6183 4.16848 11.75 4.5 11.75C4.83152 11.75 5.14946 11.6183 5.38388 11.3839C5.6183 11.1495 5.75 10.8315 5.75 10.5V4.25M15.134 2.11563L5.75 4.25M20.75 8.2504L20.25 8.25H20.75V8.2504ZM20.75 8.2504V10.5C20.75 10.8315 20.6183 11.1495 20.3839 11.3839C20.1495 11.6183 19.8315 11.75 19.5 11.75C19.1685 11.75 18.8505 11.6183 18.6161 11.3839C18.3817 11.1495 18.25 10.8315 18.25 10.5V9.5M18.25 9.5H14.25C13.9185 9.5 13.6005 9.3683 13.3661 9.13388C13.1317 8.89946 13 8.58152 13 8.25V4.25H5.75M18.25 9.5L5.75 4.25M21.1339 15.1339C21.3683 14.8995 21.5 14.5815 21.5 14.25C21.5 13.9185 21.3683 13.6005 21.1339 13.3661C20.8995 13.1317 20.5815 13 20.25 13H17.25C16.9185 13 16.6005 13.1317 16.3661 13.3661C16.1317 13.6005 16 13.9185 16 14.25V19.5C16 19.8315 16.1317 20.1495 16.3661 20.3839C16.6005 20.6183 16.9185 20.75 17.25 20.75C17.5815 20.75 17.8995 20.6183 18.1339 20.3839C18.3683 20.1495 18.5 19.8315 18.5 19.5V18.5H19.5C19.8315 18.5 20.1495 18.3683 20.3839 18.1339C20.6183 17.8995 20.75 17.5815 20.75 17.25C20.75 16.9185 20.6183 16.6005 20.3839 16.3661C20.1495 16.1317 19.8315 16 19.5 16H18.5V15.5H20.25C20.5815 15.5 20.8995 15.3683 21.1339 15.1339ZM8.20971 18.3347C8.79576 17.7487 9.125 16.9538 9.125 16.125C9.125 15.2962 8.79576 14.5013 8.20971 13.9153C7.62366 13.3292 6.8288 13 6 13H4.5C4.16848 13 3.85054 13.1317 3.61612 13.3661C3.3817 13.6005 3.25 13.9185 3.25 14.25V19.5C3.25 19.8315 3.3817 20.1495 3.61612 20.3839C3.85054 20.6183 4.16848 20.75 4.5 20.75C4.83152 20.75 5.14946 20.6183 5.38388 20.3839C5.6183 20.1495 5.75 19.8315 5.75 19.5V19.25H6C6.8288 19.25 7.62366 18.9208 8.20971 18.3347ZM6.44194 15.6831C6.55915 15.8003 6.625 15.9592 6.625 16.125C6.625 16.2908 6.55915 16.4497 6.44194 16.5669C6.32473 16.6842 6.16576 16.75 6 16.75H5.75V15.5H6C6.16576 15.5 6.32473 15.5658 6.44194 15.6831ZM14.74 19.615C15.4667 18.8883 15.875 17.9027 15.875 16.875C15.875 15.8473 15.4667 14.8617 14.74 14.135C14.0133 13.4083 13.0277 13 12 13H10.5C10.1685 13 9.85054 13.1317 9.61612 13.3661C9.3817 13.6005 9.25 13.9185 9.25 14.25V19.5C9.25 19.8315 9.3817 20.1495 9.61612 20.3839C9.85054 20.6183 10.1685 20.75 10.5 20.75H12C13.0277 20.75 14.0133 20.3417 14.74 19.615ZM12.9723 15.9027C13.2301 16.1606 13.375 16.5103 13.375 16.875C13.375 17.2397 13.2301 17.5894 12.9723 17.8473C12.7144 18.1051 12.3647 18.25 12 18.25H11.75V15.5H12C12.3647 15.5 12.7144 15.6449 12.9723 15.9027ZM15.5 6.01742L16.4826 7H15.5V6.01742Z" fill="#2A81D0" stroke="#FDFDFD"/>
</svg>
