<svg width="24" height="24" viewBox="0 0 24 24" fill="none" xmlns="http://www.w3.org/2000/svg">
<path d="M21.0158 7.26795H19.6671L22.2338 4.70121C22.9882 3.94679 22.9882 2.72032 22.2338 1.97011C21.3656 1.16932 20.2571 1.23676 19.5027 1.97011L14.2091 7.25952L3.15821 7.24687C2.18884 7.24687 1.39648 8.05609 1.39648 9.05075V21.0204C1.39648 22.0024 2.19727 22.8032 3.17929 22.8032H21.0158C21.9978 22.8032 22.7986 22.0024 22.7986 21.0204V9.05075C22.7986 8.06873 21.9978 7.26795 21.0158 7.26795ZM13.3029 9.84732L20.3414 2.80883C20.6238 2.52645 21.1127 2.52645 21.3909 2.80883C21.6817 3.09964 21.6817 3.57168 21.3909 3.85828L14.3524 10.8968L13.1259 11.0738L13.3029 9.84732ZM21.61 21.0204C21.61 21.3491 21.3445 21.6147 21.0158 21.6147H3.17929C2.85054 21.6147 2.58502 21.3491 2.58502 21.0204V9.05075C2.58502 8.70936 2.84211 8.43541 3.15821 8.43541L13.0205 8.44805L12.3209 9.14769C12.2282 9.24041 12.1692 9.35842 12.1523 9.48486L11.8362 11.6933C11.8109 11.8788 11.8741 12.0642 12.0048 12.1991C12.1523 12.3424 12.3251 12.3888 12.5106 12.3677L14.719 12.0516C14.8455 12.0347 14.9635 11.9757 15.0562 11.883L18.4827 8.45648L21.02 8.4607C21.3487 8.4607 21.6142 8.72622 21.6142 9.05496V21.0204H21.61Z" fill="#2A81D0"/>
<path d="M4.22024 12.3677H8.67515C9.00389 12.3677 9.26941 12.1022 9.26941 11.7735C9.26941 11.4447 9.00389 11.1792 8.67515 11.1792H4.22024C3.8915 11.1792 3.62598 11.4447 3.62598 11.7735C3.62598 12.1022 3.8915 12.3677 4.22024 12.3677ZM4.22024 16.0092H14.9381C15.2669 16.0092 15.5324 15.7437 15.5324 15.4149C15.5324 15.0862 15.2669 14.8207 14.9381 14.8207H4.22024C3.8915 14.8207 3.62598 15.0862 3.62598 15.4149C3.62598 15.7437 3.8915 16.0092 4.22024 16.0092ZM8.67936 18.4579H4.22024C3.8915 18.4579 3.62598 18.7235 3.62598 19.0522C3.62598 19.3809 3.8915 19.6465 4.22024 19.6465H8.67515C9.00389 19.6465 9.26941 19.3809 9.26941 19.0522C9.27363 18.7235 9.0081 18.4579 8.67936 18.4579ZM19.8145 18.4579L18.2762 17.948C18.0696 17.8805 17.8378 17.9311 17.6819 18.0828L17.0876 18.6434L16.7209 18.1545C16.6198 18.0196 16.4638 17.9353 16.2953 17.9185C16.1267 17.9058 15.9581 17.9648 15.8359 18.0786L14.7611 19.0986C14.5209 19.3261 14.5125 19.7013 14.7401 19.9373C14.9676 20.1775 15.3427 20.1859 15.5788 19.9583L16.173 19.3978L16.5397 19.8867C16.6704 20.0342 16.8221 20.1269 17.016 20.1227C17.1677 20.1227 17.3152 20.0637 17.4248 19.9583L18.2424 19.1829L19.4394 19.579C19.7513 19.6844 20.0885 19.5158 20.1896 19.2039C20.295 18.9005 20.1264 18.5633 19.8145 18.4579Z" fill="#2A81D0"/>
</svg>
