<svg width="25" height="24" viewBox="0 0 25 24" fill="none" xmlns="http://www.w3.org/2000/svg">
<path d="M12.541 15.0769L14.687 16.2039C14.7803 16.2528 14.8855 16.2746 14.9905 16.2669C15.0956 16.2592 15.1964 16.2222 15.2816 16.1602C15.3668 16.0982 15.4329 16.0137 15.4726 15.9161C15.5122 15.8185 15.5238 15.7117 15.506 15.6079L15.096 13.2179L16.827 11.5319C16.9026 11.4579 16.9561 11.3643 16.9814 11.2616C17.0067 11.1589 17.0028 11.0512 16.9702 10.9505C16.9375 10.8499 16.8775 10.7604 16.7967 10.6921C16.7159 10.6238 16.6177 10.5794 16.513 10.5639L14.12 10.2169L13.048 8.04291C13.0013 7.94845 12.9291 7.86893 12.8396 7.81333C12.7501 7.75773 12.6469 7.72827 12.5415 7.72827C12.4361 7.72827 12.3329 7.75773 12.2434 7.81333C12.1539 7.86893 12.0817 7.94845 12.035 8.04291L10.963 10.2169L8.42501 10.5849C8.33341 10.598 8.24731 10.6365 8.17648 10.696C8.10566 10.7556 8.05293 10.8338 8.0243 10.9217C7.99567 11.0097 7.99226 11.104 8.01448 11.1938C8.0367 11.2836 8.08366 11.3654 8.15001 11.4299L9.98601 13.2179L9.57501 15.6079C9.5572 15.7117 9.56878 15.8185 9.60844 15.9161C9.6481 16.0137 9.71425 16.0982 9.79943 16.1602C9.88461 16.2222 9.98543 16.2592 10.0905 16.2669C10.1956 16.2746 10.3007 16.2528 10.394 16.2039L12.54 15.0769" stroke="#F29C38" stroke-width="1.5" stroke-linecap="round" stroke-linejoin="round"/>
<path d="M17.5 21H7.5C6.43913 21 5.42172 20.5786 4.67157 19.8284C3.92143 19.0783 3.5 18.0609 3.5 17V7C3.5 5.93913 3.92143 4.92172 4.67157 4.17157C5.42172 3.42143 6.43913 3 7.5 3H17.5C18.5609 3 19.5783 3.42143 20.3284 4.17157C21.0786 4.92172 21.5 5.93913 21.5 7V17C21.5 18.0609 21.0786 19.0783 20.3284 19.8284C19.5783 20.5786 18.5609 21 17.5 21Z" stroke="#1368BC" stroke-width="1.5" stroke-linecap="round" stroke-linejoin="round"/>
</svg>
